PathFileType	4	(x/y/z)	S09_M20_T02
DataRate	CameraRate	NumFrames	NumMarkers	Units	OrigDataRate	OrigDataStartFrame	OrigNumFrames
240	240	11	51	mm	240	207	551
Frame#	Time	Sternum			R.Acromium			L.Acromium			Top.Head			R.ASIS			L.ASIS			R.PSIS			L.PSIS			R.Great.Tro			L.Great.Tro			R.Iliac.Crest			L.Iliac.Crest			V.Sacral			R.Thigh.Upper.Post			R.Thigh.Lower.Ant			R.Thigh.Lower.Post			R.Thigh.Upper.Ant			R.Knee.Lat			R.Knee.Med			R.Shank.Upper.Post			R.Shank.Lower.Ant			R.Shank.Lower.Post			R.Shank.Upper.Ant			R.Ankle.Lat			R.Ankle.Med			R.Heel.Upper			R.Heel.Med			R.Heel.Lat			R.Toe.Lat			R.Toe.Med			R.Toe.Tip			L.Thigh.Upper.Post			L.Thigh.Lower.Ant			L.Thigh.Lower.Post			L.Thigh.Upper.Ant			L.Knee.Lat			L.Knee.Med			L.Shank.Upper.Post			L.Shank.Lower.Ant			L.Shank.Lower.Post			L.Shank.Upper.Ant			L.Ankle.Lat			L.Ankle.Med			L.Heel.Upper			L.Heel.Med			L.Heel.Lat			L.Toe.Lat			L.Toe.Med			L.Toe.Tip			Cervical.Spine			Back			
		X1	Y1	Z1	X2	Y2	Z2	X3	Y3	Z3	X4	Y4	Z4	X5	Y5	Z5	X6	Y6	Z6	X7	Y7	Z7	X8	Y8	Z8	X9	Y9	Z9	X10	Y10	Z10	X11	Y11	Z11	X12	Y12	Z12	X13	Y13	Z13	X14	Y14	Z14	X15	Y15	Z15	X16	Y16	Z16	X17	Y17	Z17	X18	Y18	Z18	X19	Y19	Z19	X20	Y20	Z20	X21	Y21	Z21	X22	Y22	Z22	X23	Y23	Z23	X24	Y24	Z24	X25	Y25	Z25	X26	Y26	Z26	X27	Y27	Z27	X28	Y28	Z28	X29	Y29	Z29	X30	Y30	Z30	X31	Y31	Z31	X32	Y32	Z32	X33	Y33	Z33	X34	Y34	Z34	X35	Y35	Z35	X36	Y36	Z36	X37	Y37	Z37	X38	Y38	Z38	X39	Y39	Z39	X40	Y40	Z40	X41	Y41	Z41	X42	Y42	Z42	X43	Y43	Z43	X44	Y44	Z44	X45	Y45	Z45	X46	Y46	Z46	X47	Y47	Z47	X48	Y48	Z48	X49	Y49	Z49	X50	Y50	Z50	X51	Y51	Z51	

207	0.85833	193.86	1150.9	325.05	55.534	1397.2	482.86	59.84	1401.2	173.23	121.99	1695.6	319.49	172.5	998.78	412.64	138.13	981.64	166.66	-58.239	1008.8	363.96	-59.61	1011.8	274.59	115.62	917.17	495.78	42.993	892.73	110.78	78.324	1071.3	472.84	27.673	1077.1	144.1	-78.807	975.38	317.52	197.06	674.26	463.92	290.87	607.4	404.44	218.5	587.43	430.85	264.14	687.64	439.72	293.08	528.74	398.05	269.77	518.49	279.61	254.18	342.33	414.3	327.68	293.21	390.5	261.61	266.89	402.84	315.06	365.18	404.75	308.97	90.35	378.86	330.3	104	291.75	248.22	73.485	325.62	261.49	43.786	295.86	250.9	41.535	359.89	408.59	48.49	412.29	456.81	64.441	310.41	497.06	90.935	356.32	-75.29	665.31	181.75	-30.112	549.54	157.61	-84.371	575.53	193.4	-21.869	637.38	140.76	-71.329	483.67	167.64	-16.119	471.46	290.58	-192.37	421.51	168.55	-211.56	313.03	172.55	-245.86	366.75	178.81	-156.92	368.32	164.15	-376.07	208.51	204.68	-355.59	192.15	293.05	-434.49	245.44	264.53	-443.23	226.31	301.14	-462.27	229.73	241.67	-396.75	75.664	184.88	-355.84	54.341	290.17	-326.67	36.339	230.46	-18.065	1448.3	334.29	-68.644	1181.4	310.09
208	0.8625	199.57	1152.1	325.85	60.94	1398.2	483.38	65.446	1402.3	173.91	127.31	1696.5	320.06	177.98	999.96	413.63	144.4	982.41	167.64	-52.611	1009.6	363.9	-53.778	1012.4	274.53	120.8	918.03	496.39	49.471	893.2	111.35	83.493	1072.3	473.3	34.064	1077.7	144.38	-73.053	976.05	317.41	201.95	674.75	464.58	295.52	607.6	405.04	223.05	587.9	431.37	269.07	687.89	440.39	297.32	528.82	398.47	274.22	518.84	280.03	257.12	342.66	414.74	330.2	292.96	390.77	263.91	267.15	403.19	318.18	365.04	405.09	309.61	90.24	379.06	330.94	103.85	291.94	248.54	73.689	325.78	261.66	43.991	295.96	251.11	41.692	360	408.98	47.761	412.46	457.23	63.412	310.39	497.85	89.4	356.37	-67.592	664.86	181.68	-21.608	549.53	157	-75.987	574.97	192.99	-14.03	637.49	140.49	-62.513	483.76	166.72	-6.6311	470.88	289.47	-183.78	422.75	168.14	-203.87	314.39	171.43	-237.66	368.36	178.31	-148.82	369.3	163.05	-368.85	210.83	203.81	-348.05	194	292.1	-424.98	249.79	263.92	-434.1	231.13	300.67	-453.49	234.91	241.35	-393.88	78.218	184.91	-352.61	56.04	289.82	-325.07	35.943	229.91	-12.606	1449.1	334.82	-62.904	1182.2	310.32
209	0.86667	205.23	1153.4	326.64	66.312	1399.2	483.89	71.018	1403.5	174.56	132.62	1697.4	320.63	183.42	1001.1	414.62	150.61	983.23	168.62	-47.012	1010.4	363.89	-47.998	1013	274.52	125.96	918.84	496.99	55.887	893.73	111.92	88.641	1073.3	473.79	40.378	1078.3	144.7	-67.343	976.73	317.34	206.73	675.21	465.22	300.02	607.71	405.64	227.44	588.32	431.89	273.89	688.07	441.05	301.39	528.83	398.9	278.46	519.15	280.45	259.92	342.97	415.14	332.6	292.71	391.06	266.09	267.39	403.5	321.16	364.87	405.43	310.2	90.141	379.24	331.53	103.7	292.11	248.83	73.875	325.92	261.81	44.177	296.06	251.3	41.837	360.1	409.33	47.113	412.63	457.62	62.448	310.37	498.58	87.958	356.41	-59.877	664.42	181.56	-13.04	549.55	156.36	-67.562	574.43	192.54	-6.1535	637.63	140.2	-53.606	483.87	165.8	2.9458	470.33	288.36	-175.05	423.98	167.71	-196.02	315.74	170.32	-229.32	369.95	177.81	-140.57	370.28	161.96	-361.43	213.14	202.94	-340.34	195.84	291.17	-415.24	254.06	263.29	-424.71	235.86	300.18	-444.46	240.01	241.01	-390.71	80.864	184.92	-349.09	57.836	289.45	-323.2	35.571	229.34	-7.1772	1449.9	335.34	-57.203	1183.1	310.56
210	0.87083	210.84	1154.7	327.43	71.65	1400.3	484.38	76.552	1404.6	175.18	137.93	1698.4	321.2	188.83	1002.2	415.61	156.75	984.1	169.6	-41.442	1011.2	363.93	-42.27	1013.7	274.57	131.11	919.62	497.6	62.239	894.31	112.5	93.773	1074.4	474.3	46.61	1079	145.08	-61.675	977.42	317.33	211.39	675.63	465.83	304.39	607.75	406.22	231.68	588.7	432.39	278.59	688.19	441.69	305.28	528.8	399.34	282.48	519.41	280.86	262.59	343.24	415.48	334.89	292.44	391.34	268.16	267.6	403.76	324	364.69	405.77	310.75	90.052	379.39	332.08	103.57	292.25	249.1	74.044	326.05	261.95	44.345	296.14	251.47	41.973	360.19	409.64	46.545	412.8	457.97	61.548	310.33	499.26	86.609	356.43	-52.147	663.98	181.39	-4.4149	549.61	155.72	-59.099	573.9	192.05	1.7588	637.79	139.89	-44.613	483.99	164.86	12.598	469.83	287.26	-166.2	425.18	167.26	-188.01	317.06	169.24	-220.84	371.51	177.3	-132.18	371.25	160.86	-353.81	215.43	202.08	-332.48	197.66	290.25	-405.29	258.21	262.63	-415.09	240.46	299.66	-435.2	244.99	240.64	-387.21	83.583	184.92	-345.25	59.714	289.07	-321.03	35.236	228.74	-1.7787	1450.7	335.85	-51.542	1184	310.81
211	0.875	216.41	1156	328.2	76.955	1401.4	484.86	82.047	1405.7	175.78	143.24	1699.3	321.78	194.21	1003.3	416.6	162.81	985.02	170.56	-35.904	1012	364.03	-36.596	1014.4	274.68	136.25	920.36	498.21	68.527	894.93	113.09	98.895	1075.4	474.84	52.753	1079.8	145.5	-56.048	978.13	317.37	215.93	676.01	466.43	308.63	607.72	406.79	235.79	589.04	432.87	283.18	688.26	442.31	309.02	528.73	399.77	286.29	519.62	281.26	265.11	343.48	415.79	337.06	292.17	391.61	270.11	267.79	403.98	326.7	364.5	406.09	311.26	89.974	379.53	332.58	103.44	292.37	249.34	74.199	326.16	262.08	44.494	296.21	251.63	42.1	360.27	409.92	46.052	412.96	458.28	60.708	310.29	499.9	85.351	356.43	-44.402	663.56	181.18	4.2625	549.69	155.07	-50.604	573.38	191.52	9.7039	637.98	139.57	-35.542	484.13	163.92	22.31	469.38	286.17	-157.21	426.35	166.79	-179.84	318.36	168.17	-212.21	373.03	176.79	-123.66	372.2	159.78	-345.99	217.69	201.23	-324.46	199.47	289.36	-395.18	262.23	261.95	-405.28	244.93	299.12	-425.73	249.82	240.26	-383.35	86.353	184.9	-341.08	61.653	288.67	-318.52	34.953	228.13	3.5884	1451.6	336.34	-45.921	1184.9	311.09
212	0.87917	221.94	1157.3	328.96	82.228	1402.5	485.33	87.5	1406.9	176.35	148.55	1700.3	322.35	199.55	1004.4	417.58	168.8	985.99	171.51	-30.397	1012.8	364.2	-30.975	1015.1	274.85	141.38	921.08	498.82	74.75	895.61	113.68	104.01	1076.4	475.41	58.804	1080.6	145.97	-50.462	978.83	317.48	220.36	676.37	467	312.72	607.64	407.34	239.75	589.34	433.33	287.65	688.27	442.9	312.61	528.62	400.2	289.9	519.79	281.64	267.49	343.7	416.04	339.12	291.89	391.88	271.95	267.96	404.15	329.26	364.29	406.41	311.72	89.906	379.64	333.04	103.32	292.46	249.56	74.341	326.25	262.2	44.626	296.27	251.77	42.22	360.33	410.16	45.628	413.11	458.56	59.924	310.23	500.48	84.181	356.41	-36.642	663.15	180.94	12.987	549.81	154.41	-42.078	572.89	190.96	17.68	638.2	139.24	-26.397	484.28	162.98	32.068	468.98	285.1	-148.11	427.48	166.29	-171.52	319.62	167.14	-203.44	374.5	176.26	-114.99	373.13	158.7	-338	219.92	200.4	-316.31	201.26	288.5	-384.94	266.09	261.27	-395.31	249.22	298.56	-416.11	254.48	239.85	-379.1	89.15	184.85	-336.55	63.636	288.25	-315.61	34.738	227.51	8.9235	1452.4	336.82	-40.338	1185.9	311.38
213	0.88333	227.42	1158.6	329.7	87.469	1403.6	485.78	92.91	1408	176.89	153.85	1701.3	322.93	204.87	1005.4	418.54	174.71	987	172.44	-24.924	1013.6	364.42	-25.407	1015.8	275.08	146.51	921.79	499.43	80.908	896.33	114.27	109.13	1077.4	476.01	64.76	1081.4	146.49	-44.915	979.55	317.66	224.67	676.71	467.54	316.69	607.51	407.87	243.58	589.62	433.78	292.01	688.25	443.46	316.06	528.48	400.62	293.31	519.93	282	269.74	343.89	416.25	341.06	291.61	392.13	273.69	268.12	404.29	331.68	364.08	406.71	312.15	89.849	379.72	333.46	103.2	292.53	249.75	74.471	326.32	262.31	44.741	296.32	251.9	42.334	360.39	410.38	45.268	413.25	458.81	59.194	310.16	501.02	83.094	356.37	-28.867	662.77	180.66	21.755	549.96	153.74	-33.525	572.43	190.37	25.686	638.44	138.9	-17.185	484.45	162.03	41.857	468.65	284.06	-138.89	428.58	165.76	-163.04	320.84	166.14	-194.54	375.93	175.71	-106.2	374.03	157.65	-329.84	222.12	199.61	-308.02	203.03	287.67	-374.62	269.78	260.59	-385.25	253.32	297.99	-406.35	258.93	239.44	-374.43	91.946	184.77	-331.64	65.644	287.81	-312.27	34.606	226.88	14.226	1453.3	337.28	-34.795	1186.8	311.7
214	0.8875	232.88	1160	330.43	92.681	1404.7	486.22	98.277	1409.2	177.41	159.15	1702.3	323.51	210.16	1006.4	419.48	180.55	988.06	173.34	-19.487	1014.4	364.71	-19.892	1016.5	275.37	151.63	922.48	500.05	87.002	897.1	114.87	114.26	1078.4	476.62	70.619	1082.3	147.05	-39.407	980.28	317.91	228.87	677.03	468.05	320.52	607.34	408.38	247.29	589.88	434.21	296.26	688.19	443.99	319.36	528.32	401.01	296.54	520.04	282.34	271.87	344.07	416.41	342.9	291.33	392.37	275.32	268.26	404.38	333.98	363.86	407	312.54	89.801	379.78	333.84	103.09	292.57	249.93	74.591	326.37	262.4	44.841	296.36	252.01	42.443	360.43	410.57	44.964	413.37	459.04	58.514	310.08	501.52	82.087	356.31	-21.074	662.41	180.36	30.562	550.15	153.08	-24.945	572	189.75	33.72	638.72	138.56	-7.9096	484.64	161.09	51.663	468.4	283.05	-129.56	429.63	165.2	-154.41	322.02	165.17	-185.52	377.29	175.15	-97.269	374.9	156.62	-321.51	224.26	198.84	-299.62	204.78	286.89	-364.26	273.27	259.92	-375.12	257.19	297.43	-396.5	263.14	239	-369.32	94.714	184.64	-326.33	67.655	287.36	-308.43	34.573	226.25	19.498	1454.3	337.73	-29.289	1187.7	312.04
215	0.89167	238.3	1161.3	331.13	97.864	1405.8	486.64	103.6	1410.3	177.9	164.44	1703.3	324.08	215.43	1007.4	420.4	186.31	989.15	174.2	-14.087	1015.2	365.06	-14.43	1017.3	275.72	156.74	923.16	500.67	93.035	897.91	115.47	119.4	1079.4	477.25	76.381	1083.3	147.65	-33.936	981.01	318.22	232.97	677.34	468.54	324.23	607.13	408.87	250.86	590.11	434.62	300.39	688.1	444.49	322.53	528.14	401.39	299.61	520.12	282.66	273.88	344.23	416.53	344.64	291.06	392.6	276.85	268.4	404.44	336.15	363.64	407.26	312.9	89.763	379.82	334.19	102.99	292.59	250.09	74.702	326.41	262.49	44.927	296.39	252.12	42.548	360.47	410.75	44.71	413.47	459.23	57.881	309.99	501.98	81.155	356.23	-13.261	662.07	180.03	39.407	550.38	152.42	-16.337	571.61	189.11	41.783	639.03	138.21	1.4245	484.86	160.16	61.474	468.22	282.07	-120.14	430.64	164.61	-145.64	323.14	164.25	-176.38	378.6	174.56	-88.218	375.73	155.62	-313.03	226.35	198.12	-291.09	206.51	286.15	-353.9	276.56	259.26	-364.97	260.82	296.86	-386.59	267.1	238.56	-363.72	97.424	184.47	-320.6	69.654	286.9	-304.06	34.65	225.64	24.738	1455.2	338.16	-23.821	1188.7	312.41
216	0.89583	243.68	1162.6	331.82	103.02	1406.9	487.06	108.88	1411.4	178.37	169.74	1704.4	324.65	220.67	1008.3	421.29	191.99	990.27	175.04	-8.7251	1016	365.47	-9.0198	1018	276.13	161.84	923.85	501.3	99.009	898.76	116.07	124.55	1080.3	477.9	82.044	1084.2	148.29	-28.501	981.74	318.59	236.95	677.63	468.99	327.81	606.9	409.32	254.32	590.34	435.01	304.41	687.99	444.96	325.57	527.95	401.75	302.53	520.18	282.95	275.77	344.37	416.62	346.28	290.78	392.81	278.3	268.53	404.47	338.21	363.42	407.51	313.23	89.732	379.84	334.51	102.9	292.58	250.23	74.805	326.43	262.57	45.002	296.41	252.21	42.65	360.5	410.9	44.499	413.56	459.41	57.291	309.89	502.41	80.291	356.14	-5.4273	661.76	179.67	48.287	550.66	151.77	-7.7022	571.25	188.46	49.874	639.38	137.86	10.814	485.1	159.24	71.275	468.12	281.15	-110.62	431.59	163.98	-136.73	324.21	163.37	-167.13	379.84	173.95	-79.047	376.52	154.65	-304.4	228.39	197.44	-282.46	208.22	285.47	-343.59	279.63	258.63	-354.84	264.2	296.3	-376.67	270.77	238.11	-357.63	100.05	184.25	-314.43	71.621	286.44	-299.11	34.847	225.02	29.947	1456.1	338.59	-18.39	1189.6	312.8
217	0.9	249.04	1164	332.48	108.15	1408.1	487.46	114.12	1412.5	178.81	175.03	1705.4	325.21	225.9	1009.2	422.14	197.6	991.43	175.84	-3.4036	1016.8	365.94	-3.6607	1018.8	276.6	166.93	924.53	501.92	104.93	899.64	116.66	129.72	1081.3	478.55	87.611	1085.2	148.96	-23.101	982.49	319.03	240.83	677.92	469.42	331.27	606.65	409.76	257.67	590.54	435.38	308.32	687.87	445.4	328.49	527.75	402.08	305.31	520.22	283.22	277.56	344.5	416.68	347.83	290.52	393	279.66	268.65	404.48	340.17	363.2	407.74	313.53	89.709	379.85	334.79	102.81	292.56	250.36	74.901	326.43	262.65	45.065	296.43	252.3	42.749	360.52	411.03	44.326	413.62	459.56	56.74	309.78	502.8	79.49	356.03	2.4308	661.49	179.3	57.201	550.98	151.12	0.96219	570.94	187.8	57.993	639.76	137.5	20.256	485.36	158.33	81.058	468.1	280.26	-101.02	432.5	163.3	-127.68	325.22	162.54	-157.78	381.02	173.32	-69.763	377.27	153.72	-295.63	230.35	196.8	-273.72	209.9	284.84	-333.36	282.47	258.03	-344.78	267.3	295.75	-366.76	274.14	237.65	-351.01	102.56	183.98	-307.8	73.542	285.96	-293.53	35.168	224.43	35.127	1457.1	339	-12.995	1190.6	313.22
